REM DIRINDEX 1\2,1\3,1\4,1\5
REM DIRNAME "folder01","folder02","folder03","folder04","folder05"
TITLE ""
FILE "P1Q_t_1501-1509.mp3" MP3
  TRACK 01 AUDIO
    TITLE "0:"
    INDEX 01 00:00:00
  TRACK 02 AUDIO
    TITLE "2:cjc173_5479"
    INDEX 01 00:00:16
  TRACK 03 AUDIO
    TITLE "0:"
    INDEX 01 00:02:15
  TRACK 04 AUDIO
    TITLE "2:cjc173_5480"
    INDEX 01 00:02:62
  TRACK 05 AUDIO
    TITLE "0:"
    INDEX 01 00:03:69
  TRACK 06 AUDIO
    TITLE "3:cjc173_5481"
    INDEX 01 00:04:39
  TRACK 07 AUDIO
    TITLE "0:"
    INDEX 01 00:05:57
  TRACK 08 AUDIO
    TITLE "4:cjc173_5482"
    INDEX 01 00:06:01
  TRACK 09 AUDIO
    TITLE "0:"
    INDEX 01 00:09:01
  TRACK 10 AUDIO
    TITLE "5:cjc173_5483"
    INDEX 01 00:09:21
  TRACK 11 AUDIO
    TITLE "0:"
    INDEX 01 00:13:70
  TRACK 12 AUDIO
    TITLE "3:cjc173_5484"
    INDEX 01 00:14:40
  TRACK 13 AUDIO
    TITLE "0:"
    INDEX 01 00:15:65
  TRACK 14 AUDIO
    TITLE "4:cjc173_5485"
    INDEX 01 00:16:11
  TRACK 15 AUDIO
    TITLE "0:"
    INDEX 01 00:18:22
  TRACK 16 AUDIO
    TITLE "5:cjc173_5486"
    INDEX 01 00:18:40
  TRACK 17 AUDIO
    TITLE "0:"
    INDEX 01 00:22:73
  TRACK 18 AUDIO
    TITLE "3:cjc173_5487"
    INDEX 01 00:23:43
  TRACK 19 AUDIO
    TITLE "0:"
    INDEX 01 00:24:68
  TRACK 20 AUDIO
    TITLE "4:cjc173_5488"
    INDEX 01 00:25:12
  TRACK 21 AUDIO
    TITLE "0:"
    INDEX 01 00:26:61
  TRACK 22 AUDIO
    TITLE "5:cjc173_5489"
    INDEX 01 00:27:05
  TRACK 23 AUDIO
    TITLE "0:"
    INDEX 01 00:31:09
  TRACK 24 AUDIO
    TITLE "3:cjc173_5490"
    INDEX 01 00:31:54
  TRACK 25 AUDIO
    TITLE "0:"
    INDEX 01 00:32:73
  TRACK 26 AUDIO
    TITLE "4:cjc173_5491"
    INDEX 01 00:33:18
  TRACK 27 AUDIO
    TITLE "0:"
    INDEX 01 00:34:70
  TRACK 28 AUDIO
    TITLE "5:cjc173_5492"
    INDEX 01 00:35:15
  TRACK 29 AUDIO
    TITLE "0:"
    INDEX 01 00:40:02
  TRACK 30 AUDIO
    TITLE "3:cjc173_5493"
    INDEX 01 00:40:49
  TRACK 31 AUDIO
    TITLE "0:"
    INDEX 01 00:41:74
  TRACK 32 AUDIO
    TITLE "4:cjc173_5494"
    INDEX 01 00:42:20
  TRACK 33 AUDIO
    TITLE "0:"
    INDEX 01 00:45:74
  TRACK 34 AUDIO
    TITLE "5:cjc173_5495"
    INDEX 01 00:46:18
  TRACK 35 AUDIO
    TITLE "0:"
    INDEX 01 00:50:18
  TRACK 36 AUDIO
    TITLE "3:cjc173_5496"
    INDEX 01 00:50:65
  TRACK 37 AUDIO
    TITLE "0:"
    INDEX 01 00:52:05
  TRACK 38 AUDIO
    TITLE "4:cjc173_5497"
    INDEX 01 00:52:29
  TRACK 39 AUDIO
    TITLE "0:"
    INDEX 01 00:57:46
  TRACK 40 AUDIO
    TITLE "5:cjc173_5498"
    INDEX 01 00:57:65
  TRACK 41 AUDIO
    TITLE "0:"
    INDEX 01 01:01:49
  TRACK 42 AUDIO
    TITLE "3:cjc173_5499"
    INDEX 01 01:02:19
  TRACK 43 AUDIO
    TITLE "0:"
    INDEX 01 01:03:34
  TRACK 44 AUDIO
    TITLE "4:cjc173_5500"
    INDEX 01 01:03:56
  TRACK 45 AUDIO
    TITLE "0:"
    INDEX 01 01:06:33
  TRACK 46 AUDIO
    TITLE "5:cjc173_5501"
    INDEX 01 01:06:50
  TRACK 47 AUDIO
    TITLE "0:"
    INDEX 01 01:10:62
  TRACK 48 AUDIO
    TITLE "3:cjc173_5502"
    INDEX 01 01:11:32
  TRACK 49 AUDIO
    TITLE "0:"
    INDEX 01 01:12:37
  TRACK 50 AUDIO
    TITLE "4:cjc173_5503"
    INDEX 01 01:12:57
  TRACK 51 AUDIO
    TITLE "0:"
    INDEX 01 01:16:23
  TRACK 52 AUDIO
    TITLE "5:cjc173_5504"
    INDEX 01 01:16:43
  TRACK 53 AUDIO
    TITLE "0:"
    INDEX 01 01:19:51
  TRACK 54 AUDIO
    TITLE "3:cjc173_5505"
    INDEX 01 01:20:21
  TRACK 55 AUDIO
    TITLE "0:"
    INDEX 01 01:21:46
  TRACK 56 AUDIO
    TITLE "4:cjc173_5506"
    INDEX 01 01:21:70
  TRACK 57 AUDIO
    TITLE "0:"
    INDEX 01 01:23:23
  TRACK 58 AUDIO
    TITLE "5:cjc173_5507"
    INDEX 01 01:23:43
  TRACK 59 AUDIO
    TITLE "0:"
    INDEX 01 01:27:33
